<mxfile host="app.diagrams.net" modified="2020-12-23T01:38:43.560Z" agent="5.0 (Windows NT 10.0; Win64; x64) AppleWebKit/537.36 (KHTML, like Gecko) Chrome/85.0.4183.102 Safari/537.36" etag="h_Vg6TjIGPE1MLiUc0dB" version="14.1.1" type="github">
  <diagram name="Page-1" id="ad52d381-51e7-2e0d-a935-2d0ddd2fd229">
    <mxGraphModel dx="2522" dy="834" grid="1" gridSize="10" guides="1" tooltips="1" connect="1" arrows="1" fold="1" page="1" pageScale="1" pageWidth="1100" pageHeight="850" background="#ffffff" math="0" shadow="0">
      <root>
        <mxCell id="0" />
        <mxCell id="1" parent="0" />
        <mxCell id="9kh3wDhLQs7-ypC-ve2--6" value="" style="shape=table;html=1;whiteSpace=wrap;startSize=0;container=1;collapsible=0;childLayout=tableLayout;" parent="1" vertex="1">
          <mxGeometry x="120" y="320" width="810" height="560" as="geometry" />
        </mxCell>
        <mxCell id="9kh3wDhLQs7-ypC-ve2--7" value="" style="shape=partialRectangle;html=1;whiteSpace=wrap;collapsible=0;dropTarget=0;pointerEvents=0;fillColor=none;top=0;left=0;bottom=0;right=0;points=[[0,0.5],[1,0.5]];portConstraint=eastwest;" parent="9kh3wDhLQs7-ypC-ve2--6" vertex="1">
          <mxGeometry width="810" height="560" as="geometry" />
        </mxCell>
        <mxCell id="9kh3wDhLQs7-ypC-ve2--8" value="" style="shape=partialRectangle;html=1;whiteSpace=wrap;connectable=0;overflow=hidden;fillColor=none;top=0;left=0;bottom=0;right=0;" parent="9kh3wDhLQs7-ypC-ve2--7" vertex="1">
          <mxGeometry width="810" height="560" as="geometry" />
        </mxCell>
        <mxCell id="pAwFFn-Q9lakDj62FER6-1" value="平台注册用户&lt;br&gt;项目负责人权限" style="shape=umlActor;verticalLabelPosition=bottom;verticalAlign=top;html=1;" parent="1" vertex="1">
          <mxGeometry x="30" y="120" width="30" height="60" as="geometry" />
        </mxCell>
        <mxCell id="pAwFFn-Q9lakDj62FER6-2" value="&lt;font color=&quot;#ffffff&quot; style=&quot;font-size: 24px&quot;&gt;[云平台]&lt;br&gt;医院数据中心&lt;br&gt;&lt;br&gt;&lt;/font&gt;" style="html=1;rounded=1;fillColor=#3399FF;strokeColor=#FFFFFF;fontSize=24;" parent="1" vertex="1">
          <mxGeometry x="230" y="349" width="260" height="152" as="geometry" />
        </mxCell>
        <mxCell id="pAwFFn-Q9lakDj62FER6-6" value="平台注册用户&lt;br&gt;医院用户" style="shape=umlActor;verticalLabelPosition=bottom;verticalAlign=top;html=1;" parent="1" vertex="1">
          <mxGeometry x="300" y="100" width="30" height="60" as="geometry" />
        </mxCell>
        <mxCell id="7wvNYwcTOtEe8FW4VnQ9-1" value="" style="endArrow=classic;startArrow=classic;html=1;shadow=0;exitX=0.187;exitY=-0.029;exitDx=0;exitDy=0;exitPerimeter=0;" parent="1" source="pAwFFn-Q9lakDj62FER6-2" edge="1">
          <mxGeometry width="50" height="50" relative="1" as="geometry">
            <mxPoint x="180" y="200" as="sourcePoint" />
            <mxPoint x="70" y="210" as="targetPoint" />
          </mxGeometry>
        </mxCell>
        <mxCell id="7wvNYwcTOtEe8FW4VnQ9-2" value="医院信息维护&lt;br&gt;上传院内基础数据&lt;br&gt;分配匹配任务&lt;br&gt;下载匹配后用户数据" style="edgeLabel;html=1;align=center;verticalAlign=middle;resizable=0;points=[];" parent="7wvNYwcTOtEe8FW4VnQ9-1" vertex="1" connectable="0">
          <mxGeometry x="0.0248" y="-2" relative="1" as="geometry">
            <mxPoint x="-34.05" y="-23.41" as="offset" />
          </mxGeometry>
        </mxCell>
        <mxCell id="7wvNYwcTOtEe8FW4VnQ9-6" value="平台注册用户&lt;br&gt;公司内部药师" style="shape=umlActor;verticalLabelPosition=bottom;verticalAlign=top;html=1;" parent="1" vertex="1">
          <mxGeometry x="450" y="100" width="30" height="60" as="geometry" />
        </mxCell>
        <mxCell id="7wvNYwcTOtEe8FW4VnQ9-9" value="" style="endArrow=classic;html=1;shadow=0;entryX=0.827;entryY=-0.015;entryDx=0;entryDy=0;entryPerimeter=0;" parent="1" target="pAwFFn-Q9lakDj62FER6-2" edge="1">
          <mxGeometry width="50" height="50" relative="1" as="geometry">
            <mxPoint x="465" y="190" as="sourcePoint" />
            <mxPoint x="570" y="390" as="targetPoint" />
            <Array as="points" />
          </mxGeometry>
        </mxCell>
        <mxCell id="7wvNYwcTOtEe8FW4VnQ9-10" value="药品匹配&lt;br&gt;审核众包用户匹配准确度、&lt;br&gt;审核众包用户规则维护的准确度" style="edgeLabel;html=1;align=center;verticalAlign=middle;resizable=0;points=[];" parent="7wvNYwcTOtEe8FW4VnQ9-9" vertex="1" connectable="0">
          <mxGeometry x="-0.0204" y="-1" relative="1" as="geometry">
            <mxPoint x="27.23" y="-25.83" as="offset" />
          </mxGeometry>
        </mxCell>
        <mxCell id="7wvNYwcTOtEe8FW4VnQ9-16" value="[云平台]&lt;br&gt;知识库维护服务&lt;br&gt;&lt;br&gt;&lt;br&gt;" style="html=1;rounded=1;fontColor=#FFFFFF;strokeColor=#FFFFFF;fontSize=24;labelPosition=center;verticalLabelPosition=middle;align=center;verticalAlign=middle;fillColor=#3399FF;" parent="1" vertex="1">
          <mxGeometry x="240" y="610" width="260" height="160" as="geometry" />
        </mxCell>
        <mxCell id="7wvNYwcTOtEe8FW4VnQ9-17" value="" style="endArrow=classic;html=1;shadow=0;fontSize=24;fontColor=#FFFFFF;entryX=0.704;entryY=-0.004;entryDx=0;entryDy=0;entryPerimeter=0;exitX=0.75;exitY=1;exitDx=0;exitDy=0;" parent="1" source="pAwFFn-Q9lakDj62FER6-2" target="7wvNYwcTOtEe8FW4VnQ9-16" edge="1">
          <mxGeometry width="50" height="50" relative="1" as="geometry">
            <mxPoint x="450" y="520" as="sourcePoint" />
            <mxPoint x="500" y="470" as="targetPoint" />
          </mxGeometry>
        </mxCell>
        <mxCell id="7wvNYwcTOtEe8FW4VnQ9-21" value="提&lt;font color=&quot;#000000&quot;&gt;提交不存在的药品信息&lt;br&gt;&lt;/font&gt;" style="edgeLabel;html=1;align=center;verticalAlign=middle;resizable=0;points=[];fontSize=12;fontColor=#FFFFFF;" parent="7wvNYwcTOtEe8FW4VnQ9-17" vertex="1" connectable="0">
          <mxGeometry x="-0.0245" y="4" relative="1" as="geometry">
            <mxPoint as="offset" />
          </mxGeometry>
        </mxCell>
        <mxCell id="7wvNYwcTOtEe8FW4VnQ9-18" value="" style="endArrow=classic;html=1;shadow=0;fontSize=12;fontColor=#FFFFFF;entryX=0.25;entryY=1;entryDx=0;entryDy=0;exitX=0.164;exitY=0.012;exitDx=0;exitDy=0;exitPerimeter=0;" parent="1" source="7wvNYwcTOtEe8FW4VnQ9-16" edge="1">
          <mxGeometry width="50" height="50" relative="1" as="geometry">
            <mxPoint x="280" y="590" as="sourcePoint" />
            <mxPoint x="280" y="500" as="targetPoint" />
          </mxGeometry>
        </mxCell>
        <mxCell id="7wvNYwcTOtEe8FW4VnQ9-19" value="&lt;font color=&quot;#000000&quot; style=&quot;font-size: 12px;&quot;&gt;提供知识库药品字典&lt;br style=&quot;font-size: 12px;&quot;&gt;途径字典&lt;br style=&quot;font-size: 12px;&quot;&gt;频次字典&lt;br style=&quot;font-size: 12px;&quot;&gt;&lt;/font&gt;" style="edgeLabel;html=1;align=center;verticalAlign=middle;resizable=0;points=[];fontSize=12;fontColor=#FFFFFF;labelBackgroundColor=#ffffff;" parent="7wvNYwcTOtEe8FW4VnQ9-18" vertex="1" connectable="0">
          <mxGeometry x="-0.1111" y="1" relative="1" as="geometry">
            <mxPoint as="offset" />
          </mxGeometry>
        </mxCell>
        <mxCell id="7wvNYwcTOtEe8FW4VnQ9-22" value="[云平台]&lt;br&gt;规则分析引擎" style="html=1;rounded=1;fontColor=#FFFFFF;strokeColor=#FFFFFF;fontSize=24;fillColor=#3399FF;" parent="1" vertex="1">
          <mxGeometry x="640" y="710" width="240" height="140" as="geometry" />
        </mxCell>
        <mxCell id="7wvNYwcTOtEe8FW4VnQ9-24" value="Text" style="text;html=1;strokeColor=none;fillColor=none;align=center;verticalAlign=middle;whiteSpace=wrap;rounded=0;labelBackgroundColor=#ffffff;fontSize=12;fontColor=#FFFFFF;" parent="1" vertex="1">
          <mxGeometry x="530" y="600" width="40" height="20" as="geometry" />
        </mxCell>
        <mxCell id="7wvNYwcTOtEe8FW4VnQ9-25" value="院内数据集合、院内药品相关匹配" style="text;html=1;strokeColor=none;fillColor=none;align=center;verticalAlign=middle;whiteSpace=wrap;rounded=0;labelBackgroundColor=#3399FF;fontSize=12;fontColor=#FFFFFF;" parent="1" vertex="1">
          <mxGeometry x="250" y="444" width="220" height="20" as="geometry" />
        </mxCell>
        <mxCell id="7wvNYwcTOtEe8FW4VnQ9-26" value="药品知识库规则维护" style="text;html=1;strokeColor=none;fillColor=none;align=center;verticalAlign=middle;whiteSpace=wrap;rounded=0;labelBackgroundColor=#3399FF;fontSize=12;fontColor=#FFFFFF;" parent="1" vertex="1">
          <mxGeometry x="260" y="710" width="220" height="20" as="geometry" />
        </mxCell>
        <mxCell id="7wvNYwcTOtEe8FW4VnQ9-30" value="" style="group" parent="1" vertex="1" connectable="0">
          <mxGeometry x="640" y="450" width="260" height="160" as="geometry" />
        </mxCell>
        <mxCell id="7wvNYwcTOtEe8FW4VnQ9-23" value="[云平台]&lt;br&gt;内容管理服务&lt;br&gt;&lt;br&gt;&lt;br&gt;" style="html=1;rounded=1;strokeColor=#FFFFFF;fontSize=24;fontColor=#FFFFFF;fillColor=#3399FF;" parent="7wvNYwcTOtEe8FW4VnQ9-30" vertex="1">
          <mxGeometry width="260" height="160" as="geometry" />
        </mxCell>
        <mxCell id="7wvNYwcTOtEe8FW4VnQ9-28" value="医药相关咨询文献为小程序APP&lt;br&gt;提供内容支撑" style="text;html=1;strokeColor=none;fillColor=none;align=center;verticalAlign=middle;whiteSpace=wrap;rounded=0;labelBackgroundColor=#3399FF;fontSize=12;fontColor=#FFFFFF;" parent="7wvNYwcTOtEe8FW4VnQ9-30" vertex="1">
          <mxGeometry x="20" y="100" width="220" height="20" as="geometry" />
        </mxCell>
        <mxCell id="7wvNYwcTOtEe8FW4VnQ9-31" value="[外部系统]&lt;br&gt;院内HIS" style="html=1;rounded=1;fillColor=#CCCCCC;fontColor=#FFFFFF;strokeColor=#FFFFFF;fontSize=24;" parent="1" vertex="1">
          <mxGeometry x="-140" y="590" width="200" height="115" as="geometry" />
        </mxCell>
        <mxCell id="7wvNYwcTOtEe8FW4VnQ9-35" value="" style="endArrow=classic;html=1;shadow=0;fontSize=12;fontColor=#FFFFFF;exitX=1.006;exitY=0.093;exitDx=0;exitDy=0;exitPerimeter=0;" parent="1" source="7wvNYwcTOtEe8FW4VnQ9-31" target="pAwFFn-Q9lakDj62FER6-2" edge="1">
          <mxGeometry width="50" height="50" relative="1" as="geometry">
            <mxPoint x="80" y="490" as="sourcePoint" />
            <mxPoint x="130" y="450" as="targetPoint" />
          </mxGeometry>
        </mxCell>
        <mxCell id="7wvNYwcTOtEe8FW4VnQ9-37" value="上传院内数据药品&lt;br&gt;信息患者信息&lt;br&gt;处方信息等" style="edgeLabel;html=1;align=center;verticalAlign=middle;resizable=0;points=[];fontSize=12;labelBackgroundColor=#FFFFFF;" parent="7wvNYwcTOtEe8FW4VnQ9-35" vertex="1" connectable="0">
          <mxGeometry x="-0.0817" y="6" relative="1" as="geometry">
            <mxPoint x="-2.960000000000001" y="0.9599999999999973" as="offset" />
          </mxGeometry>
        </mxCell>
        <mxCell id="9kh3wDhLQs7-ypC-ve2--15" value="" style="endArrow=classic;startArrow=classic;html=1;" parent="1" source="pAwFFn-Q9lakDj62FER6-2" edge="1">
          <mxGeometry width="50" height="50" relative="1" as="geometry">
            <mxPoint x="290" y="348" as="sourcePoint" />
            <mxPoint x="330" y="190" as="targetPoint" />
          </mxGeometry>
        </mxCell>
        <mxCell id="9kh3wDhLQs7-ypC-ve2--16" value="提交当前未匹配数据&lt;br&gt;下载当前医院匹配数据" style="edgeLabel;html=1;align=center;verticalAlign=middle;resizable=0;points=[];" parent="9kh3wDhLQs7-ypC-ve2--15" vertex="1" connectable="0">
          <mxGeometry x="-0.0149" y="1" relative="1" as="geometry">
            <mxPoint as="offset" />
          </mxGeometry>
        </mxCell>
        <mxCell id="9kh3wDhLQs7-ypC-ve2--22" value="" style="group" parent="1" vertex="1" connectable="0">
          <mxGeometry x="710" y="110" width="40" height="80" as="geometry" />
        </mxCell>
        <mxCell id="7wvNYwcTOtEe8FW4VnQ9-11" value="平台注册用户&lt;br&gt;外部众包用户" style="shape=umlActor;verticalLabelPosition=bottom;verticalAlign=top;html=1;" parent="9kh3wDhLQs7-ypC-ve2--22" vertex="1">
          <mxGeometry x="10" width="30" height="60" as="geometry" />
        </mxCell>
        <mxCell id="9kh3wDhLQs7-ypC-ve2--13" value="" style="endArrow=classic;html=1;entryX=0.992;entryY=0.125;entryDx=0;entryDy=0;entryPerimeter=0;" parent="9kh3wDhLQs7-ypC-ve2--22" target="pAwFFn-Q9lakDj62FER6-2" edge="1">
          <mxGeometry width="50" height="50" relative="1" as="geometry">
            <mxPoint y="80" as="sourcePoint" />
            <mxPoint x="-180" y="150" as="targetPoint" />
          </mxGeometry>
        </mxCell>
        <mxCell id="9kh3wDhLQs7-ypC-ve2--14" value="&amp;nbsp;匹配药品" style="edgeLabel;html=1;align=center;verticalAlign=middle;resizable=0;points=[];" parent="9kh3wDhLQs7-ypC-ve2--13" vertex="1" connectable="0">
          <mxGeometry x="0.0341" y="3" relative="1" as="geometry">
            <mxPoint y="1" as="offset" />
          </mxGeometry>
        </mxCell>
        <mxCell id="9kh3wDhLQs7-ypC-ve2--18" value="" style="endArrow=classic;html=1;entryX=0.978;entryY=0.09;entryDx=0;entryDy=0;entryPerimeter=0;" parent="9kh3wDhLQs7-ypC-ve2--22" target="7wvNYwcTOtEe8FW4VnQ9-16" edge="1">
          <mxGeometry width="50" height="50" relative="1" as="geometry">
            <mxPoint x="40" y="80" as="sourcePoint" />
            <mxPoint x="-330" y="280" as="targetPoint" />
          </mxGeometry>
        </mxCell>
        <mxCell id="9kh3wDhLQs7-ypC-ve2--19" value="&lt;span style=&quot;font-size: 12px&quot;&gt;维护药品规则&lt;/span&gt;" style="edgeLabel;html=1;align=center;verticalAlign=middle;resizable=0;points=[];" parent="9kh3wDhLQs7-ypC-ve2--18" vertex="1" connectable="0">
          <mxGeometry x="0.0239" y="-1" relative="1" as="geometry">
            <mxPoint as="offset" />
          </mxGeometry>
        </mxCell>
        <mxCell id="9kh3wDhLQs7-ypC-ve2--25" value="" style="endArrow=classic;html=1;entryX=-0.012;entryY=0.376;entryDx=0;entryDy=0;entryPerimeter=0;" parent="1" source="7wvNYwcTOtEe8FW4VnQ9-16" target="7wvNYwcTOtEe8FW4VnQ9-22" edge="1">
          <mxGeometry width="50" height="50" relative="1" as="geometry">
            <mxPoint x="470" y="560" as="sourcePoint" />
            <mxPoint x="520" y="510" as="targetPoint" />
          </mxGeometry>
        </mxCell>
        <mxCell id="9kh3wDhLQs7-ypC-ve2--26" value="提供药品规则" style="edgeLabel;html=1;align=center;verticalAlign=middle;resizable=0;points=[];" parent="9kh3wDhLQs7-ypC-ve2--25" vertex="1" connectable="0">
          <mxGeometry x="-0.2906" y="2" relative="1" as="geometry">
            <mxPoint as="offset" />
          </mxGeometry>
        </mxCell>
        <mxCell id="9kh3wDhLQs7-ypC-ve2--34" value="平台注册用户&lt;br&gt;内容管理员" style="shape=umlActor;verticalLabelPosition=bottom;verticalAlign=top;html=1;" parent="1" vertex="1">
          <mxGeometry x="960" y="160" width="30" height="60" as="geometry" />
        </mxCell>
        <mxCell id="9kh3wDhLQs7-ypC-ve2--35" value="" style="endArrow=classic;html=1;" parent="1" target="7wvNYwcTOtEe8FW4VnQ9-23" edge="1">
          <mxGeometry width="50" height="50" relative="1" as="geometry">
            <mxPoint x="970" y="250" as="sourcePoint" />
            <mxPoint x="1010" y="340" as="targetPoint" />
          </mxGeometry>
        </mxCell>
        <mxCell id="9kh3wDhLQs7-ypC-ve2--36" value="内容维护" style="edgeLabel;html=1;align=center;verticalAlign=middle;resizable=0;points=[];" parent="9kh3wDhLQs7-ypC-ve2--35" vertex="1" connectable="0">
          <mxGeometry x="-0.5488" y="2" relative="1" as="geometry">
            <mxPoint x="-1" as="offset" />
          </mxGeometry>
        </mxCell>
        <mxCell id="9kh3wDhLQs7-ypC-ve2--37" value="[外部系统]&lt;br&gt;指导单小程序" style="html=1;rounded=1;fillColor=#CCCCCC;fontColor=#FFFFFF;strokeColor=#FFFFFF;fontSize=24;" parent="1" vertex="1">
          <mxGeometry x="980" y="349" width="200" height="115" as="geometry" />
        </mxCell>
        <mxCell id="9kh3wDhLQs7-ypC-ve2--38" value="[外部系统]&lt;br&gt;APP" style="html=1;rounded=1;fillColor=#CCCCCC;fontColor=#FFFFFF;strokeColor=#FFFFFF;fontSize=24;" parent="1" vertex="1">
          <mxGeometry x="1030" y="505" width="200" height="115" as="geometry" />
        </mxCell>
        <mxCell id="9kh3wDhLQs7-ypC-ve2--39" value="" style="endArrow=classic;html=1;" parent="1" target="9kh3wDhLQs7-ypC-ve2--37" edge="1">
          <mxGeometry width="50" height="50" relative="1" as="geometry">
            <mxPoint x="900" y="475" as="sourcePoint" />
            <mxPoint x="950" y="425" as="targetPoint" />
          </mxGeometry>
        </mxCell>
        <mxCell id="9kh3wDhLQs7-ypC-ve2--42" value="提供内容" style="edgeLabel;html=1;align=center;verticalAlign=middle;resizable=0;points=[];" parent="9kh3wDhLQs7-ypC-ve2--39" vertex="1" connectable="0">
          <mxGeometry x="-0.1277" relative="1" as="geometry">
            <mxPoint as="offset" />
          </mxGeometry>
        </mxCell>
        <mxCell id="9kh3wDhLQs7-ypC-ve2--40" value="" style="endArrow=classic;html=1;" parent="1" target="9kh3wDhLQs7-ypC-ve2--38" edge="1">
          <mxGeometry width="50" height="50" relative="1" as="geometry">
            <mxPoint x="900" y="550" as="sourcePoint" />
            <mxPoint x="990" y="454.55555555555566" as="targetPoint" />
            <Array as="points">
              <mxPoint x="900" y="550" />
            </Array>
          </mxGeometry>
        </mxCell>
        <mxCell id="9kh3wDhLQs7-ypC-ve2--41" value="提供内容" style="edgeLabel;html=1;align=center;verticalAlign=middle;resizable=0;points=[];" parent="9kh3wDhLQs7-ypC-ve2--40" vertex="1" connectable="0">
          <mxGeometry x="0.1555" y="-2" relative="1" as="geometry">
            <mxPoint as="offset" />
          </mxGeometry>
        </mxCell>
        <mxCell id="9kh3wDhLQs7-ypC-ve2--43" value="[外部接口]&lt;br&gt;开放平台" style="html=1;rounded=1;fillColor=#CCCCCC;fontColor=#FFFFFF;strokeColor=#FFFFFF;fontSize=24;" parent="1" vertex="1">
          <mxGeometry x="1010" y="680" width="200" height="115" as="geometry" />
        </mxCell>
        <mxCell id="9kh3wDhLQs7-ypC-ve2--45" style="rounded=0;orthogonalLoop=1;jettySize=auto;html=1;" parent="1" source="7wvNYwcTOtEe8FW4VnQ9-22" target="9kh3wDhLQs7-ypC-ve2--43" edge="1">
          <mxGeometry relative="1" as="geometry" />
        </mxCell>
        <mxCell id="9kh3wDhLQs7-ypC-ve2--46" value="提供分析功能" style="edgeLabel;html=1;align=center;verticalAlign=middle;resizable=0;points=[];" parent="9kh3wDhLQs7-ypC-ve2--45" vertex="1" connectable="0">
          <mxGeometry x="-0.0934" y="1" relative="1" as="geometry">
            <mxPoint as="offset" />
          </mxGeometry>
        </mxCell>
        <mxCell id="9kh3wDhLQs7-ypC-ve2--47" value="平台注册用户&lt;br&gt;授权管理员" style="shape=umlActor;verticalLabelPosition=bottom;verticalAlign=top;html=1;" parent="1" vertex="1">
          <mxGeometry x="-30" y="280" width="30" height="60" as="geometry" />
        </mxCell>
        <mxCell id="9kh3wDhLQs7-ypC-ve2--49" value="" style="endArrow=classic;html=1;entryX=-0.009;entryY=0.38;entryDx=0;entryDy=0;entryPerimeter=0;" parent="1" target="pAwFFn-Q9lakDj62FER6-2" edge="1">
          <mxGeometry width="50" height="50" relative="1" as="geometry">
            <mxPoint y="320" as="sourcePoint" />
            <mxPoint x="40" y="299" as="targetPoint" />
          </mxGeometry>
        </mxCell>
        <mxCell id="9kh3wDhLQs7-ypC-ve2--50" value="授权医院使用时限(有效期)" style="edgeLabel;html=1;align=center;verticalAlign=middle;resizable=0;points=[];" parent="9kh3wDhLQs7-ypC-ve2--49" vertex="1" connectable="0">
          <mxGeometry x="-0.1075" relative="1" as="geometry">
            <mxPoint as="offset" />
          </mxGeometry>
        </mxCell>
      </root>
    </mxGraphModel>
  </diagram>
</mxfile>
